<svg xmlns="http://www.w3.org/2000/svg" xmlns:xlink="http://www.w3.org/1999/xlink" width="64.466" height="68.261" viewBox="0 0 64.466 68.261"><defs><style>.a{fill-rule:evenodd;fill:url(#a);}</style><linearGradient id="a" x1="0.602" y1="0.609" x2="1.168" y2="-0.149" gradientUnits="objectBoundingBox"><stop offset="0" stop-color="#085fbc"/><stop offset="0.494" stop-color="#4989ce" stop-opacity="0.737"/><stop offset="1" stop-color="#fff" stop-opacity="0"/></linearGradient></defs><path class="a" d="M25.32,84.131H82.233q-.449-3.882-.911-7.777c-2.13.078-4.268.162-6.4.229q1.48-2.047,2.973-4.117C76.24,53.53,59.467,37.8,40.633,33.153c-2.742.607-8.7,1.645-11.458,2.242C12.149,45.5,18.88,64.68,20.521,75.217q2.967.34,5.946.691c-2.75.9-5.495,1.82-8.237,2.732.3,1.832.607,3.66.92,5.49ZM40.481,27.4c1.632-3.357,4.6-4.91,7.857-5.785a15.256,15.256,0,0,1,4.412-.533,9.732,9.732,0,0,1,3.867.852,4.464,4.464,0,0,1,2.539,2.818,5.028,5.028,0,0,1,.177,1.459,4.921,4.921,0,0,1-2.286,3.945A13.225,13.225,0,0,1,52.814,32,39.3,39.3,0,0,1,42.9,33.127L41.52,31.135c1.767.043,11.753-2.469,13.529-3.752a1.687,1.687,0,0,0,.877-1.258,2.063,2.063,0,0,0-.063-.488,1.262,1.262,0,0,0-.729-.623,6.13,6.13,0,0,0-2.5-.516c-3.825-.135-9.152,2.521-11.623,5.213L40.481,27.4ZM28.066,33.035q5.8-1.558,11.61-3.123a22.56,22.56,0,0,1,1.91-13.521q-4.314-.264-8.637-.521c-.1.727-.2,1.451-.308,2.186-.692-.49-1.384-.971-2.087-1.459-2.564.412-5.125.834-7.7,1.248q1.4,2.959,2.813,5.93c-1.733-1.316-3.471-2.643-5.212-3.957-.89,1.174-1.8,2.363-2.691,3.543,5.12,2.512,8.5,5.768,10.3,9.674Z" transform="translate(-17.767 -15.87)"/></svg>