<svg width="89.344" height="89.344" xmlns="http://www.w3.org/2000/svg">
 <defs>
  <style>.a{fill:url(#a);}.b{fill:none;}</style>
 </defs>
 <g>
  <title>background</title>
  <rect fill="none" id="canvas_background" height="402" width="582" y="-1" x="-1"/>
 </g>
 <g>
  <title>Layer 1</title>
  <path id="svg_1" d="m37.227,74.453c1.759,-1.965 -1.793,-17.522 0,-18.848s14.16,-0.979 14.891,0s-1.438,16.482 0,18.848s16.718,1.5 18.613,0s0,-26.5 0,-26.5s12.467,-0.734 11.168,-3.277s-31.156,-33.508 -37.227,-33.508s-35.51,30.431 -37.227,33.5s11.168,3.281 11.168,3.281s-2.1,24.036 0,26.5s16.854,1.969 18.614,0.004z" class="a"/>
  <path stroke="null" id="svg_2" d="m6.999998,8.000002l74.344001,0l0,69.343998l-74.344001,0l0,-69.343998z" class="b"/>
 </g>
</svg>