<svg xmlns="http://www.w3.org/2000/svg" xmlns:xlink="http://www.w3.org/1999/xlink" width="92" height="68" viewBox="0 0 92 68"><defs><style>.a{fill:url(#a);}</style><linearGradient id="a" x1="0.581" y1="0.322" x2="1.157" y2="-0.612" gradientUnits="objectBoundingBox"><stop offset="0" stop-color="#085fbc"/><stop offset="0.623" stop-color="#4989ce" stop-opacity="0.737"/><stop offset="1" stop-color="#fff" stop-opacity="0"/></linearGradient></defs><path class="a" d="M83.88,23H62.81A5.34,5.34,0,0,0,63,21.67V18.33A5.335,5.335,0,0,0,57.67,13H38.33A5.335,5.335,0,0,0,33,18.33v3.34A5.34,5.34,0,0,0,33.19,23H12.12A10.132,10.132,0,0,0,2,33.12V70.88A10.132,10.132,0,0,0,12.12,81H83.88A10.132,10.132,0,0,0,94,70.88V33.12A10.132,10.132,0,0,0,83.88,23ZM37,18.33A1.336,1.336,0,0,1,38.33,17H57.67A1.336,1.336,0,0,1,59,18.33v3.34A1.336,1.336,0,0,1,57.67,23H38.33A1.336,1.336,0,0,1,37,21.67ZM57.44,63.36a11.4,11.4,0,0,1-7.38,3.11V71h-4.1V66.5q-8.04-.765-9.96-8.64l6.34-1.53q.885,4.95,5.83,4.95a4.769,4.769,0,0,0,3.41-1.06,3.433,3.433,0,0,0,1.09-2.56,2.711,2.711,0,0,0-1.09-2.35,20.232,20.232,0,0,0-4.85-2.03,31.393,31.393,0,0,1-5.28-2.14,8.453,8.453,0,0,1-3.09-2.97,8.234,8.234,0,0,1-1.19-4.44,9.394,9.394,0,0,1,2.12-5.99c1.41-1.77,3.64-2.85,6.67-3.24V31h4.1v3.5q6.885.75,8.9,7.18l-5.65,2.14q-1.65-4.4-5.11-4.4a3.931,3.931,0,0,0-2.78.98,3.146,3.146,0,0,0-1.06,2.39,2.573,2.573,0,0,0,1.02,2.19,18.036,18.036,0,0,0,4.34,1.9,40.955,40.955,0,0,1,5.73,2.32,8.632,8.632,0,0,1,3.31,3.03A8.15,8.15,0,0,1,60,56.75,9.129,9.129,0,0,1,57.44,63.36Z" transform="translate(-2 -13)"/></svg>